<svg width="30" height="30" viewBox="0 0 30 30" fill="none" xmlns="http://www.w3.org/2000/svg">
<g clip-path="url(#clip0_2180_84)">
<path d="M14.2989 1.92705C14.5983 1.00574 15.9017 1.00574 16.2011 1.92705L18.8984 10.2285C19.0322 10.6405 19.4162 10.9195 19.8494 10.9195H28.578C29.5468 10.9195 29.9495 12.1591 29.1658 12.7285L22.1042 17.859C21.7537 18.1137 21.6071 18.565 21.7409 18.9771L24.4382 27.2785C24.7376 28.1998 23.6831 28.9659 22.8994 28.3965L15.8378 23.266C15.4873 23.0113 15.0127 23.0113 14.6622 23.266L7.6006 28.3965C6.81689 28.9659 5.76241 28.1998 6.06176 27.2785L8.75906 18.9771C8.89293 18.565 8.74627 18.1137 8.39578 17.859L1.33417 12.7285C0.550458 12.1591 0.953234 10.9195 1.92196 10.9195H10.6506C11.0838 10.9195 11.4678 10.6405 11.6016 10.2285L14.2989 1.92705Z" fill="#ECECEC"/>
<path fill-rule="evenodd" clip-rule="evenodd" d="M15 1.26651C14.6922 1.34291 14.4172 1.56309 14.2989 1.92705L11.6016 10.2285C11.4678 10.6405 11.0838 10.9195 10.6506 10.9195H1.92196C0.953235 10.9195 0.550458 12.1591 1.33417 12.7285L8.39579 17.859C8.74627 18.1137 8.89293 18.565 8.75906 18.9771L6.06176 27.2785C5.76241 28.1998 6.81689 28.9659 7.6006 28.3965L14.6622 23.266C14.7661 23.1905 14.8808 23.1374 15 23.1067V1.26651Z" fill="#FFCC47"/>
</g>
<defs>
<clipPath id="clip0_2180_84">
<rect width="30" height="30" fill="white"/>
</clipPath>
</defs>
</svg>
